<?xml version="1.0" encoding="iso-8859-1"?>
<!-- Generator: Adobe Illustrator 18.0.0, SVG Export Plug-In . SVG Version: 6.00 Build 0)  -->
<!DOCTYPE svg PUBLIC "-//W3C//DTD SVG 1.1//EN" "http://www.w3.org/Graphics/SVG/1.1/DTD/svg11.dtd">
<svg version="1.1" id="Capa_1" xmlns="http://www.w3.org/2000/svg" xmlns:xlink="http://www.w3.org/1999/xlink" x="0px" y="0px"
	 viewBox="0 0 69.595 69.595" style="enable-background:new 0 0 69.595 69.595;" xml:space="preserve">
<path d="M67.492,6.571H53.818c-1.162,0-2.104,0.942-2.104,2.104c0,1.161,0.942,2.104,2.103,2.103h8.595l-8.156,8.065
	c-1.79-0.891-3.801-1.405-5.936-1.405c-2.349,0-4.865,0.63-6.694,1.776l-0.009,0.008c-1.959-1.129-4.225-1.784-6.649-1.784
	c-2.258,0-4.683,0.713-6.645,1.82c-1.973-1.15-4.259-1.82-6.707-1.82c-2.275,0-4.415,0.572-6.29,1.576l-8.145-8.236h8.595
	c0.581,0,1.107-0.236,1.487-0.616c0.381-0.381,0.616-0.907,0.616-1.487c0-1.162-0.942-2.104-2.104-2.104H2.103
	C0.942,6.571,0,7.513,0,8.674v13.674c0,1.162,0.942,2.104,2.104,2.104c1.161,0,2.104-0.942,2.103-2.103v-8.595l7.75,7.837
	c-2.283,2.396-3.692,5.631-3.692,9.201c0,7.374,5.978,13.352,13.352,13.352c2.349,0,4.556-0.606,6.473-1.671l0.183-0.152
	c1.411,0.819,2.981,1.394,4.659,1.651l-0.066,11.87l-6.078-6.078c-0.41-0.411-0.949-0.616-1.487-0.616
	c-0.538,0-1.077,0.205-1.487,0.616c-0.822,0.822-0.822,2.153,0,2.975l9.669,9.669c0.821,0.821,2.154,0.821,2.975,0l9.669-9.669
	c0.822-0.822,0.822-2.153,0-2.975c-0.821-0.821-2.154-0.821-2.975,0l-6.078,6.078l0.066-11.896c1.469-0.241,3.259-0.899,4.526-1.578
	l-0.046-0.042c1.972,1.148,4.257,1.817,6.703,1.817c7.374,0,13.352-5.978,13.352-13.352c0-3.702-1.507-7.05-3.94-9.468l7.654-7.569
	v8.595c0,0.581,0.235,1.107,0.616,1.487c0.381,0.381,0.907,0.616,1.487,0.616c1.162,0,2.104-0.942,2.104-2.104V8.674
	C69.596,7.513,68.653,6.571,67.492,6.571z M41.792,36.336c-2.614-3.068-2.863-7.667-0.156-11.063
	C44.339,28.035,44.32,33.39,41.792,36.336z M28.112,35.933c-2.598-2.747-2.458-7.477-0.037-10.764
	c2.651,3.066,2.768,7.786,0.243,11.004C28.25,36.093,28.184,36.009,28.112,35.933z M15.557,36.851c-3.342-3.342-3.342-8.779,0-12.12
	c2.369-2.369,5.788-3.05,8.77-2.06c-1.068,1.268-2.71,5.35-2.71,8.12c0,3.029,1.017,5.812,2.717,8.049l-0.228,0.151
	C21.178,39.874,17.867,39.161,15.557,36.851z M32.435,38.977c-0.03-0.009-0.058-0.023-0.087-0.033
	c1.587-2.197,2.622-5.237,2.622-8.153c0-3.056-1.038-5.863-2.765-8.113c1.718-0.661,3.582-0.504,5.329,0.12
	c-1.56,2.19-2.564,5.106-2.564,7.994c0,3.048,1.033,5.849,2.752,8.096C36.085,39.375,34.059,39.477,32.435,38.977z M54.382,36.851
	c-2.355,2.355-5.748,3.042-8.717,2.079c1.588-2.207,2.657-5.226,2.657-8.139c0-3.025-1.018-5.806-2.713-8.044l0.013-0.008
	c2.773-1.045,6.451-0.318,8.761,1.992C57.724,28.072,57.724,33.51,54.382,36.851z"/>
<g>
</g>
<g>
</g>
<g>
</g>
<g>
</g>
<g>
</g>
<g>
</g>
<g>
</g>
<g>
</g>
<g>
</g>
<g>
</g>
<g>
</g>
<g>
</g>
<g>
</g>
<g>
</g>
<g>
</g>
</svg>
