<?xml version="1.0" encoding="iso-8859-1"?>
<!-- Generator: Adobe Illustrator 19.0.0, SVG Export Plug-In . SVG Version: 6.00 Build 0)  -->
<svg version="1.1" id="Layer_1" xmlns="http://www.w3.org/2000/svg" xmlns:xlink="http://www.w3.org/1999/xlink" x="0px" y="0px"
	 viewBox="0 0 393.051 393.051" style="enable-background:new 0 0 393.051 393.051;" xml:space="preserve">
<path style="fill:#C19D7B;" d="M196.687,0L196.687,0C139.281,0,92.671,46.61,92.671,104.016v126.836h207.774V104.016
	C300.444,46.675,254.093,0,196.687,0z"/>
<g>
	<circle style="fill:#EEB490;" cx="118.853" cy="147.523" r="26.182"/>
	<circle style="fill:#EEB490;" cx="274.521" cy="147.523" r="26.182"/>
	<path style="fill:#EEB490;" d="M326.626,267.766l-80.679-9.956v-35.426h-99.038v35.426l-52.945,6.594
		c6.529,41.891,47.192,139.119,285.867,82.554v-19.135C379.83,297.115,357.01,271.451,326.626,267.766z"/>
</g>
<path style="fill:#FACCB4;" d="M126.998,121.083v49.261c0,37.754,29.608,69.689,67.62,70.723c39.046,1.034,71.24-30.384,71.24-69.43
	v-50.554c0-12.606-10.214-22.562-22.562-22.562H149.56C137.212,98.521,126.998,108.477,126.998,121.083z"/>
<path style="fill:#FF667C;" d="M93.964,264.404l-27.798,3.426c-30.125,3.685-52.945,29.35-52.945,59.733v65.487h366.545v-46.352
	C140.897,403.265,100.558,306.036,93.964,264.404z"/>
<g>
</g>
<g>
</g>
<g>
</g>
<g>
</g>
<g>
</g>
<g>
</g>
<g>
</g>
<g>
</g>
<g>
</g>
<g>
</g>
<g>
</g>
<g>
</g>
<g>
</g>
<g>
</g>
<g>
</g>
</svg>
